<svg xmlns="http://www.w3.org/2000/svg" viewBox="0 0 2506.6909 3456.25"><defs><style>.cls-1{fill:#231f20;}.cls-2{fill:#fff;}</style></defs><g id="Layer_2" data-name="Layer 2"><g id="Layer_1-2" data-name="Layer 1"><rect class="cls-1" x="4.9997" y="5" width="2496.6914" height="3446.25"/><path class="cls-2" d="M2496.6909,10V3446.25H10V10H2496.6909M2502.38,0H4.3113A4.3114,4.3114,0,0,0,0,4.3118V3451.9382a4.3114,4.3114,0,0,0,4.3113,4.3118H2502.38a4.3114,4.3114,0,0,0,4.3113-4.3118V4.3118A4.3114,4.3114,0,0,0,2502.38,0Z"/><rect class="cls-2" x="302.8646" y="348.7946" width="213.3107" height="1718.0156" rx="4.3116"/><path class="cls-2" d="M631.4783,1238.55l680.8375-875.6326a24.9752,24.9752,0,0,1,27.8861-8.2709h0A24.9751,24.9751,0,0,1,1351.7,393.64l-116.8027,149.248L800.3985,1096.7916c-15.49,19.7465,4.5244,47.4427,28.1168,38.8839,48.9963-17.775,111.2229-30.3862,173.8545-16.2721,136.2035,30.6938,305.92,180.1179,332.32,440.6259a27.255,27.255,0,0,1,.1373,2.7372V3116.0681l5.3271,308.9731a24.9752,24.9752,0,0,1-24.9715,25.4058H1181.3364a24.9752,24.9752,0,0,1-24.9739-25.2279l17.0313-1683.2547c.0058-.58.0322-1.1462.0771-1.724,1.3811-17.758,21.2634-312.9684-171.1011-451.7258-198.3737-143.0921-370.8915-37.4735-370.8915-37.4735"/><path class="cls-2" d="M1523.1553,1536.4233v-15.6724a24.9456,24.9456,0,0,1,28.4454-24.7344c81.44,11.5733,315.9037,49.8929,413.55,119.19,119.1465,84.5556,230.6061,196.0152,238.293,403.5607s-99.9293,449.6819-361.2829,518.8638c-171.8375,45.4864-255.6158,56.0814-292.8469,58.0031a24.9256,24.9256,0,0,1-26.1583-24.9529v-16.69a24.9271,24.9271,0,0,1,23.4276-24.9239c64.65-3.8493,245.4425-24.5966,316.238-136.4205a20.0353,20.0353,0,0,1,1.3125-1.8557c10.4578-13.0237,144.3434-186.4236,89.8341-462.5178a23.4047,23.4047,0,0,1-.4161-3.3135c-1.2437-23.3-23.6018-299.8467-385.8826-363.174a26.1675,26.1675,0,0,0-4.4846-.3873h-15.0537A24.9752,24.9752,0,0,1,1523.1553,1536.4233Z"/></g></g></svg>