<svg xmlns="http://www.w3.org/2000/svg" viewBox="0 0 394.68 643.96"><defs><style>.cls-1{fill:#fff;}</style></defs><g id="Layer_2" data-name="Layer 2"><g id="Layer_1-2" data-name="Layer 1"><rect class="cls-1" width="44.29" height="356.69" rx="4.31"/><path class="cls-1" d="M68.23,184.73,209.58,2.93a5.2,5.2,0,0,1,5.79-1.72h0a5.19,5.19,0,0,1,2.39,8.1l-24.25,31-90.21,115a5.18,5.18,0,0,0,5.84,8.07c10.17-3.69,23.09-6.31,36.09-3.38,28.28,6.38,63.52,37.4,69,91.49a5.25,5.25,0,0,1,0,.56v322.5l1.1,64.15a5.18,5.18,0,0,1-5.18,5.27H182.39a5.18,5.18,0,0,1-5.19-5.23l3.54-349.48c0-.12,0-.24,0-.36.29-3.69,4.42-65-35.52-93.79-41.19-29.7-77-7.78-77-7.78"/><path class="cls-1" d="M253.36,246.57v-3.25a5.17,5.17,0,0,1,5.9-5.13c16.91,2.4,65.59,10.35,85.86,24.74,24.74,17.56,47.88,40.7,49.48,83.79s-20.75,93.36-75,107.73c-35.68,9.44-53.07,11.64-60.8,12a5.18,5.18,0,0,1-5.43-5.18v-3.47a5.17,5.17,0,0,1,4.86-5.17c13.42-.8,51-5.11,65.66-28.33a3.28,3.28,0,0,1,.27-.38c2.17-2.71,30-38.71,18.65-96,0-.23-.07-.45-.09-.69-.25-4.83-4.9-62.25-80.11-75.4a5.84,5.84,0,0,0-.93-.08h-3.13A5.18,5.18,0,0,1,253.36,246.57Z"/></g></g></svg>